<svg width="15" height="14" viewBox="0 0 15 14" fill="none" xmlns="http://www.w3.org/2000/svg">
<path d="M7.49998 13.6666C3.81808 13.6666 0.833313 10.6818 0.833313 6.99992C0.833313 3.31802 3.81808 0.333252 7.49998 0.333252C11.1818 0.333252 14.1666 3.31802 14.1666 6.99992C14.1666 10.6818 11.1818 13.6666 7.49998 13.6666ZM7.49998 8.99992C7.13179 8.99992 6.83331 9.2984 6.83331 9.66659C6.83331 10.0348 7.13179 10.3333 7.49998 10.3333C7.86817 10.3333 8.16665 10.0348 8.16665 9.66659C8.16665 9.2984 7.86817 8.99992 7.49998 8.99992ZM7.49998 3.66659C7.13179 3.66659 6.83331 3.96506 6.83331 4.33325V6.99992C6.83331 7.36811 7.13179 7.66659 7.49998 7.66659C7.86817 7.66659 8.16665 7.36811 8.16665 6.99992V4.33325C8.16665 3.96506 7.86817 3.66659 7.49998 3.66659Z" fill="#F25B51"/>
</svg>
